# xmcd
#
# Track frame offsets: 
#        150
#        15012
#        36527
#        58652
#        71982
#        83847
#        97430
#        113050
#        128580
#        144370
#        160382
#        191160
#        205240
#        227730
#        241355
#        259827
#        278567
#        290985
#        312850
#
# Disc length: 4329 seconds
#
# Revision: 1
# Processed by: cddbd v1.5.2PL0 Copyright (c) Steve Scherf et al.
# Submitted via: ExactAudioCopy v0.95b4
#
DISCID=1e10e713
DTITLE=Various Artist - The Johnny Otis Show Live at Monterey!
DYEAR=1993
DGENRE=Soul
TTITLE0=Johnny Otis - Willie and the Hand Jive
TTITLE1=Little Esther Phillips - Cry Me A River Blues
TTITLE2=Eddie Cleanhead Vinson - Cleanhead's Blues
TTITLE3=Joe Turner - I Got a Gal
TTITLE4=Ivory Joe Hunter - Since I Met You Baby
TTITLE5=Roy Milton - Baby You Don't Know
TTITLE6=Gene Connors - Preacher's Blues
TTITLE7=Roy Brown - Good Rockin' Tonight
TTITLE8=Shuggie Otis - The Time Machine
TTITLE9=Margie Evans - Margie's Boogie
TTITLE10=Little Esther Phillips - Little Esther's Blues (Medley)
TTITLE11=Eddie Cleanhead Vinson - Kidney Stew
TTITLE12=Pee Wee Crayton - The Things I Used To Do
TTITLE13=Roy Milton - R.M. Blues
TTITLE14=Shuggie Otis - Shuggie's Boogie
TTITLE15=Delmar Evans - You Look Better Out
TTITLE16=Johnny Otis and Delmar Evans - Goin' Back To L. A.
TTITLE17=Joe Turner - Plastic Man
TTITLE18=Ensemble - Boogie Woogie Bye Bye
EXTD=
EXTT0=
EXTT1=
EXTT2=
EXTT3=
EXTT4=
EXTT5=
EXTT6=
EXTT7=
EXTT8=
EXTT9=
EXTT10=
EXTT11=
EXTT12=
EXTT13=
EXTT14=
EXTT15=
EXTT16=
EXTT17=
EXTT18=
PLAYORDER=
